<svg xmlns="http://www.w3.org/2000/svg" viewBox="0 0 102.603 118.475">
    <defs>
        <style>
            .cls-2 {
            fill: #fff;
            }
        </style>
    </defs>
    <g>
        <path
                d="M51.3,9.238l43.3,25v50l-43.3,25L8,84.238v-50l43.3-25M51.3,0l-4,2.309L4,27.309l-4,2.31V88.856l4,2.31,43.3,25,4,2.309,4-2.309,43.3-25,4-2.31V29.619l-4-2.31-43.3-25L51.3,0Z"
        />
        <g>
            <polygon
                    points="12 81.928 12 36.547 51.301 13.856 90.602 36.547 90.602 81.928 51.301 104.619 12 81.928"
            />
            <path
                    class="cls-2"
                    d="M51.3,18.475,86.6,38.856V79.619L51.3,100,16,79.619V38.856L51.3,18.475m0-9.237L8,34.238v50l43.3,25,43.3-25v-50l-43.3-25Z"
            />
        </g>
    </g>
</svg>
