<svg xmlns="http://www.w3.org/2000/svg" viewBox="0 0 120 121">
    <defs>
        <style>
            .cls-2 {
            fill: #fff;
            }
        </style>
    </defs>
    <g>
        <path d="M60,9.357l43.857,25.322V85.322L60,110.644,16.141,85.322V34.679L60,9.357M60,0,55.947,2.339,12.09,27.661,8.038,30V90l4.052,2.339,43.857,25.322L60,120l4.051-2.339,43.857-25.322L111.959,90V30l-4.052-2.339L64.05,2.339Z"/>
        <polygon points="20.193 82.983 20.193 37.017 60 14.034 99.806 37.017 99.806 82.983 60 105.966 20.193 82.983"/>
        <path class="cls-2" d="M60,18.713,95.753,39.356V80.644L60,101.287,24.244,80.644V39.356L60,18.713m0-9.356L16.141,34.679V85.322L60,110.644l43.857-25.322V34.679Z" />
    </g>
</svg>
