<svg xmlns="http://www.w3.org/2000/svg" viewBox="0 0 118.475 102.603">
    <defs>
        <style>
            .cls-2 {
            fill: #fff;
            }
        </style>
    </defs>
    <g>
        <path
                d="M84.238,8l25,43.3-25,43.3h-50l-25-43.3,25-43.3h50m4.618-8H29.619l-2.31,4-25,43.3L0,51.3l2.309,4,25,43.3,2.31,4H88.856l2.31-4,25-43.3,2.309-4-2.309-4L91.166,4l-2.31-4Z"
        />
        <g>
            <polygon
                    points="36.547 90.603 13.856 51.301 36.547 12 81.928 12 104.619 51.301 81.928 90.603 36.547 90.603"
            />
            <path
                    class="cls-2"
                    d="M79.619,16,100,51.3,79.619,86.6H38.856L18.475,51.3,38.856,16H79.619m4.619-8h-50l-25,43.3,25,43.3h50l25-43.3L84.238,8Z"
            />
        </g>
    </g>
</svg>
