<svg xmlns="http://www.w3.org/2000/svg" viewBox="0 0 120 120">
    <defs>
        <style>
            .cls-2 {
            fill: #fff;
            }
        </style>
    </defs>
    <g>
        <path d="M85.322,16.141,110.644,60,85.322,103.856H34.679L9.357,60,34.679,16.141H85.322M90,8.038H30L27.661,12.09,2.339,55.947,0,60,2.339,64.05l25.322,43.857L30,111.959H90l2.339-4.052L117.661,64.05,120,60l-2.339-4.052L92.339,12.09Z"/>
        <polygon points="37.017 99.807 14.034 60 37.017 20.193 82.983 20.193 105.966 60 82.983 99.807 37.017 99.807"/>
        <path class="cls-2" d="M80.644,24.244,101.287,60,80.644,95.753H39.356L18.713,60,39.356,24.244H80.644m4.678-8.1H34.679L9.357,60l25.322,43.857H85.322L110.644,60Z"/>
    </g>
</svg>
