<svg xmlns="http://www.w3.org/2000/svg" viewBox="0 0 87.429 131.548">
    <defs>
        <style>
            .cls-2 {
            fill: #fff;
            }
        </style>
    </defs>
    <g>
        <path
                d="M43.707,8.912,80.386,37.346V94.214L43.722,122.636,7.044,94.2V37.334L43.707,8.912m0-8.912L39.392,3.345,2.728,31.767,0,33.882V97.654l2.728,2.115L39.407,128.2l4.315,3.346,4.316-3.346L84.7,99.78l2.728-2.114V33.894L84.7,31.779,48.023,3.345,43.707,0Z"
        />
        <g>
            <polygon
                    points="10.566 92.476 10.566 39.06 43.707 13.368 76.864 39.072 76.864 92.488 43.722 118.18 10.566 92.476"
            />
            <path
                    class="cls-2"
                    d="M43.707,17.825,73.342,40.8V90.762l-29.62,22.961L14.087,90.75V40.786l29.62-22.961m0-8.913L7.044,37.334V94.2l36.678,28.434L80.386,94.214V37.346L43.707,8.912Z"
            />
        </g>
    </g>
</svg>
