<svg xmlns="http://www.w3.org/2000/svg" viewBox="0 0 120 120">
    <defs>
        <style>
            .cls-2 {
            fill: #fff;
            }
        </style>
    </defs>
    <g>
        <path d="M59.993,8.13,93.452,34.068V85.943L60.007,111.87,26.549,85.93V34.057L59.993,8.13m0-8.13L56.057,3.051,22.612,28.978l-2.489,1.93V89.081l2.489,1.93,33.459,25.935L60.007,120l3.937-3.052L97.387,91.021l2.489-1.929V30.919l-2.489-1.93L63.93,3.051Z"/>
        <polygon points="29.761 84.358 29.761 35.631 59.993 12.194 90.239 35.642 90.239 84.369 60.007 107.805 29.761 84.358"/>
        <path class="cls-2" d="M59.993,16.26,87.027,37.218V82.794L60.007,103.74,32.973,82.783V37.206L59.993,16.26m0-8.13L26.549,34.057V85.93l33.458,25.938L93.452,85.943V34.068Z"/>
    </g>
</svg>
