<svg xmlns="http://www.w3.org/2000/svg" viewBox="0 0 120 120">
    <defs>
        <style>
            .cls-2 {
            fill: #fff;
            }
        </style>
    </defs>
    <g>
        <path d="M88.922,14.6c17.4,0,24.41,16.069,21.217,28.927C99.22,87.462,60,104.573,60,104.573S20.78,87.462,9.862,43.522C6.667,30.664,13.679,14.6,31.079,14.6S60,31.7,60,31.7,71.523,14.6,88.922,14.6m0-9.1C76.273,5.494,66.3,12.194,60,18.049,53.7,12.194,43.73,5.494,31.078,5.494c-9.914,0-18.523,4.025-24.24,11.336A34.349,34.349,0,0,0,1.026,45.724C12.89,93.465,54.59,112.146,56.359,112.918L60,114.506l3.64-1.588c1.771-.772,43.469-19.453,55.335-67.194A34.343,34.343,0,0,0,113.16,16.83C107.444,9.519,98.836,5.494,88.922,5.494Z"/>
        <path d="M60,99.5c-7.616-3.964-36.817-21.244-45.718-57.076A20.414,20.414,0,0,1,17.6,25.241c3.116-3.984,7.778-6.091,13.481-6.091,14.7,0,25.051,14.943,25.159,15.094L60.02,39.8l3.761-5.565c.1-.142,10.443-15.085,25.148-15.085,5.7,0,10.365,2.106,13.481,6.091a20.411,20.411,0,0,1,3.316,17.185C96.816,78.259,67.614,95.539,60,99.5Z"/>
        <path class="cls-2" d="M88.922,23.7c4.312,0,7.642,1.461,9.895,4.344A16,16,0,0,1,101.3,41.329,81.673,81.673,0,0,1,75.448,83.26,91.16,91.16,0,0,1,60,94.337,91.08,91.08,0,0,1,44.548,83.26,81.668,81.668,0,0,1,18.693,41.329a16,16,0,0,1,2.485-13.283c2.254-2.883,5.583-4.344,9.9-4.344C43.3,23.7,52.38,36.687,52.446,36.78l7.525,11.233,7.549-11.2c.09-.131,9.169-13.114,21.4-13.114m0-9.105C71.523,14.6,60,31.7,60,31.7S48.477,14.6,31.078,14.6,6.667,30.666,9.862,43.522C20.78,87.462,60,104.57,60,104.57s39.22-17.108,50.138-61.048C113.332,30.664,106.32,14.6,88.921,14.6Z"/>
    </g>
</svg>
