<svg xmlns="http://www.w3.org/2000/svg" viewBox="0 0 103.466 94.026">
    <defs>
        <style>
            .cls-2 {
            fill: #fff;
            }
        </style>
    </defs>
    <g>
        <path
                d="M76.679,7.852c15.006,0,21.054,13.86,18.3,24.95C85.561,70.7,51.733,85.458,51.733,85.458S17.905,70.7,8.488,32.8c-2.756-11.09,3.292-24.95,18.3-24.95S51.733,22.6,51.733,22.6,61.672,7.852,76.679,7.852m0-7.852C65.769,0,57.167,5.779,51.733,10.829,46.3,5.779,37.7,0,26.787,0,18.236,0,10.811,3.472,5.88,9.778A29.627,29.627,0,0,0,.867,34.7C11.1,75.877,47.067,91.99,48.593,92.656l3.14,1.37,3.14-1.37C56.4,91.99,92.366,75.877,102.6,34.7A29.62,29.62,0,0,0,97.585,9.778C92.655,3.472,85.23,0,76.679,0Z"
        />
        <g>
            <path
                    d="M51.733,81.085C45.164,77.666,19.978,62.762,12.3,31.856a17.608,17.608,0,0,1,2.86-14.823c2.688-3.437,6.709-5.254,11.628-5.254,12.683,0,21.607,12.889,21.7,13.019l3.262,4.79,3.244-4.8c.084-.122,9.008-13.011,21.691-13.011,4.919,0,8.94,1.817,11.628,5.254a17.606,17.606,0,0,1,2.86,14.822C83.488,62.762,58.3,77.666,51.733,81.085Z"
            />
            <path
                    class="cls-2"
                    d="M76.679,15.705c3.719,0,6.591,1.26,8.535,3.747a13.8,13.8,0,0,1,2.143,11.457,70.44,70.44,0,0,1-22.3,36.166,78.533,78.533,0,0,1-13.326,9.554,78.582,78.582,0,0,1-13.326-9.554,70.44,70.44,0,0,1-22.3-36.166,13.8,13.8,0,0,1,2.143-11.457c1.944-2.487,4.816-3.747,8.535-3.747,10.546,0,18.378,11.2,18.435,11.28l6.49,9.689,6.511-9.658c.078-.113,7.909-11.311,18.456-11.311m0-7.853C61.672,7.852,51.733,22.6,51.733,22.6S41.794,7.852,26.787,7.852,5.732,21.712,8.488,32.8c9.417,37.9,43.245,52.656,43.245,52.656S85.561,70.7,94.978,32.8c2.755-11.09-3.293-24.95-18.3-24.95Z"
            />
        </g>
    </g>
</svg>
