<svg xmlns="http://www.w3.org/2000/svg" viewBox="0 0 120 120">
  <defs>
    <style>
      .cls-2 {
        fill: #fff;
      }
    </style>
  </defs>
  <g>
    <path d="M109.239,9.731S107.711,110.269,60,110.269,10.764,9.731,10.764,9.731h98.475M119.116,0H.884l.15,9.879a256.771,256.771,0,0,0,7.027,52.5C20.084,110,42.944,120,60,120s39.921-10,51.945-57.618a256.7,256.7,0,0,0,7.024-52.5Z"/>
    <path d="M60,105.4c-21.513,0-32.425-25.34-37.791-46.595A243.163,243.163,0,0,1,15.826,14.6h88.347C103.113,34.209,96.734,105.4,60,105.4Z"/>
    <path class="cls-2" d="M98.987,19.462A231.792,231.792,0,0,1,93.006,57.9c-3.385,13.311-7.8,23.752-13.121,31.035-5.708,7.813-12.212,11.61-19.884,11.61s-14.175-3.8-19.884-11.61C34.8,81.651,30.386,71.21,27,57.9a232,232,0,0,1-5.981-38.437h77.97m10.254-9.731H10.764S12.293,110.269,60,110.269,109.239,9.731,109.239,9.731Z"/>
  </g>
</svg>
