<svg xmlns="http://www.w3.org/2000/svg" viewBox="0 0 97.202 98.654">
    <defs>
        <style>
            .cls-2 {
            fill: #fff;
            }
        </style>
    </defs>
    <g>
        <path
                d="M89.08,8S87.824,90.654,48.6,90.654,8.122,8,8.122,8H89.08M97.2,0H0L.123,8.122A211.128,211.128,0,0,0,5.9,51.285c9.884,39.151,28.678,47.369,42.7,47.369s32.82-8.218,42.705-47.369A211.008,211.008,0,0,0,97.079,8.122L97.2,0Z"
        />
        <g>
            <path
                    d="M48.6,86.654c-17.686,0-26.657-20.832-31.069-38.306A199.972,199.972,0,0,1,12.284,12H84.915C84.044,28.124,78.8,86.654,48.6,86.654Z"
            />
            <path
                    class="cls-2"
                    d="M80.652,16a190.655,190.655,0,0,1-4.917,31.6c-2.783,10.943-6.412,19.527-10.787,25.514-4.693,6.423-10.04,9.545-16.347,9.545s-11.654-3.122-16.347-9.545c-4.375-5.987-8-14.571-10.787-25.514A190.7,190.7,0,0,1,16.55,16h64.1M89.08,8H8.122S9.379,90.654,48.6,90.654,89.08,8,89.08,8Z"
            />
        </g>
    </g>
</svg>
