<svg xmlns="http://www.w3.org/2000/svg" viewBox="0 0 120 120">
    <defs>
        <style>
            .cls-2 {
            fill: #fff;
            }

            .cls-4 {
            stroke: #fff;
            stroke-width: 8px;
            }
        </style>
    </defs>
    <g>
        <circle class="cls-4" cx="60.383" cy="60.996" r="48.58"/>
        <path d="M6.289,6.291A8.811,8.811,0,0,1,9.348,4.3l3.758-1.439a7.485,7.485,0,0,1,7.55,1.129L38.508,19.219l5.771-6.791q.235-.277.489-.531c3.013-2.991,7.617-3.372,10.589-.877l5.764,4.874a7.514,7.514,0,0,1,1.4,9.425l46.8,43.809a7.066,7.066,0,0,1,2.1,3.932l6.14,34.6a8.779,8.779,0,0,1-6.47,9.741,7.989,7.989,0,0,1-3.426.155l-34.6-6.14a7.064,7.064,0,0,1-3.937-2.1l-43.8-46.8a7.515,7.515,0,0,1-9.424-1.4l-4.879-5.761c-2.492-2.974-2.11-7.575.878-10.589.169-.169.347-.333.531-.489l6.794-5.774L3.991,20.653A7.484,7.484,0,0,1,2.863,13.1L4.3,9.352A8.835,8.835,0,0,1,6.289,6.291Z"/>
        <path d="M114.4,114.4a7.394,7.394,0,0,1-6.476,2.156l-34.6-6.144a6.172,6.172,0,0,1-3.433-1.827L25.554,61.226l-.118.079a6.6,6.6,0,0,1-8.742-.878l-4.879-5.762a6.874,6.874,0,0,1,.763-9.206c.15-.151.3-.289.461-.426l7.613-6.469L4.787,19.957a6.507,6.507,0,0,1-.98-6.563L5.245,9.637A7.684,7.684,0,0,1,9.636,5.246l3.758-1.437a6.507,6.507,0,0,1,6.563.98L38.563,20.653l6.469-7.612c.138-.162.282-.318.425-.462a6.875,6.875,0,0,1,9.208-.762L60.426,16.7a6.6,6.6,0,0,1,.878,8.742l-.08.118L108.585,69.9a6.176,6.176,0,0,1,1.827,3.43l6.143,34.6A7.391,7.391,0,0,1,114.4,114.4M16.513,50.3l-.013-.04.013.04a.6.6,0,0,0,.1.184.6.6,0,0,1-.1-.184M50.264,16.5a.627.627,0,0,1,.223.117.627.627,0,0,0-.223-.117M16.483,50.012a.638.638,0,0,0,.014.164.638.638,0,0,1-.014-.164M50.158,16.487a.56.56,0,0,0-.142-.007.56.56,0,0,1,.142.007l.023,0-.023,0M16.553,49.776l.007-.007-.007.007a.69.69,0,0,0-.044.14.69.69,0,0,1,.044-.14M49.779,16.55l-.007.006.007-.006a.632.632,0,0,1,.14-.044.632.632,0,0,0-.14.044M16.621,49.676a.868.868,0,0,1,.1-.128l.019-.019-.043.042a.757.757,0,0,0-.073.105M49.575,16.692l-.044.044.017-.018a.952.952,0,0,1,.129-.1.687.687,0,0,0-.1.074m66.2,99.079a9.562,9.562,0,0,0,2.786-8.376l-6.142-34.6a7.992,7.992,0,0,0-2.362-4.437L63.757,25.03A8.4,8.4,0,0,0,61.819,15.1l-5.761-4.878c-3.361-2.821-8.565-2.39-11.972.991-.191.191-.378.393-.553.6l-5.073,5.97L21.354,3.193a8.457,8.457,0,0,0-8.535-1.277L9.061,3.354a9.983,9.983,0,0,0-5.7,5.7L1.918,12.816a8.459,8.459,0,0,0,1.275,8.535L17.779,38.458l-5.97,5.073c-.206.175-.408.362-.6.552C7.829,47.49,7.4,52.694,10.218,56.056L15.1,61.817a8.4,8.4,0,0,0,9.936,1.938l43.33,46.294a7.97,7.97,0,0,0,4.439,2.363l34.594,6.147A9.566,9.566,0,0,0,115.771,115.773Z"/>
        <path class="cls-2" d="M15.387,48.135l17.7-15.044,15-17.653.111-.111a2.749,2.749,0,0,1,3.674-.308l5.762,4.88a2.636,2.636,0,0,1,.35,3.491L44.429,43.6a3.062,3.062,0,0,1-.845.845l-20.2,13.551a2.635,2.635,0,0,1-3.491-.349l-4.879-5.761a2.749,2.749,0,0,1,.3-3.679Z"/>
        <path class="cls-2" d="M42.683,42.685a.8.8,0,0,1-.115.094l-20.2,13.556a.652.652,0,0,1-.87-.09l-4.878-5.76a.682.682,0,0,1,.075-.914l.045-.044L34.417,34.506c.015-.014.03-.028.044-.043a.625.625,0,0,0,.044-.045L49.529,16.741l.045-.045a.678.678,0,0,1,.913-.075l5.76,4.874a.652.652,0,0,1,.089.87L42.781,42.57a.744.744,0,0,1-.095.115m2.743,2.743a5.384,5.384,0,0,0,.666-.81L59.647,24.413a4.617,4.617,0,0,0-.615-6.118l-5.76-4.878a4.811,4.811,0,0,0-6.443.534q-.155.154-.3.322l-14.82,17.44L14.272,46.532c-.112.1-.22.2-.322.3a4.81,4.81,0,0,0-.534,6.443l4.878,5.761a4.618,4.618,0,0,0,6.117.615l20.2-13.556a5.384,5.384,0,0,0,.81-.666Z"/>
        <path class="cls-2" d="M28.769,54.205a3.223,3.223,0,0,1,.615-.478l12.658-7.7a2.682,2.682,0,0,1,3.036.093l7.051,6.015-5.968-7a2.694,2.694,0,0,1-.14-3.091l7.7-12.66a3.192,3.192,0,0,1,.478-.615,2.9,2.9,0,0,1,4.005-.222l47.439,44.414a2.558,2.558,0,0,1,.756,1.417l6.147,34.607a3.165,3.165,0,0,1-2.332,3.512,2.872,2.872,0,0,1-1.235.055l-34.6-6.144a2.551,2.551,0,0,1-1.418-.754L28.544,58.209a2.9,2.9,0,0,1,.228-4Z"/>
        <path class="cls-2" d="M110.285,110.287a.887.887,0,0,1-.779.259l-34.6-6.14a.742.742,0,0,1-.413-.219L30.075,56.739a.838.838,0,0,1,.066-1.163.929.929,0,0,1,.179-.14l12.66-7.7a.659.659,0,0,1,.754.023l23.224,19.81a.422.422,0,0,0,.585-.077.415.415,0,0,0,.024-.532L47.757,43.735a.657.657,0,0,1-.023-.754l7.7-12.66a.878.878,0,0,1,1.148-.356.706.706,0,0,1,.154.112L104.182,74.5a.747.747,0,0,1,.22.412l6.142,34.6a.887.887,0,0,1-.259.779m2.743,2.743a5.229,5.229,0,0,0,1.523-4.577l-6.143-34.6a4.366,4.366,0,0,0-1.291-2.425L59.672,27.009a4.933,4.933,0,0,0-6.926.478,5.583,5.583,0,0,0-.735.957l-7.7,12.661a5.057,5.057,0,0,0-.741,2.465,5.047,5.047,0,0,0-2.465.741l-12.661,7.7a5.18,5.18,0,0,0-2.086,6.767,4.288,4.288,0,0,0,.652.894l44.42,47.445a4.358,4.358,0,0,0,2.425,1.292l34.6,6.143A5.231,5.231,0,0,0,113.028,113.03Z"/>
        <path class="cls-2" d="M9.718,9.72a3.052,3.052,0,0,1,1.061-.691L14.537,7.59a2.6,2.6,0,0,1,2.624.393L37.282,25.139a2.626,2.626,0,0,1,.263,3.6l-3.473,4.689a3.151,3.151,0,0,1-.3.345,3.044,3.044,0,0,1-.339.293l-4.692,3.477a2.63,2.63,0,0,1-3.606-.263L7.982,17.163a2.6,2.6,0,0,1-.4-2.623l1.439-3.759A3.064,3.064,0,0,1,9.718,9.72Z"/>
        <path class="cls-2" d="M32.4,32.405a.748.748,0,0,1-.086.074l-4.687,3.473a.657.657,0,0,1-.9-.065L9.58,15.767a.647.647,0,0,1-.1-.652l1.439-3.757a.761.761,0,0,1,.436-.436l3.756-1.438a.647.647,0,0,1,.652.1L35.881,26.733a.655.655,0,0,1,.065.895l-3.472,4.687a.871.871,0,0,1-.075.086m2.743,2.743a5.346,5.346,0,0,0,.521-.6l3.473-4.686a4.6,4.6,0,0,0-.459-6.314L18.556,6.383A4.554,4.554,0,0,0,13.964,5.7L10.207,7.133a5.372,5.372,0,0,0-3.072,3.072L5.7,13.963a4.55,4.55,0,0,0,.689,4.591L23.541,38.675a4.6,4.6,0,0,0,6.314.459l4.687-3.473a5.25,5.25,0,0,0,.6-.521Z"/>
        <path d="M42.777,42.569l13.556-20.2a.652.652,0,0,0-.09-.87l-5.76-4.878a.684.684,0,0,0-.949.113l-.007.009L34.505,34.418a.61.61,0,0,1-.088.088L16.739,49.531a.687.687,0,0,0-.128.949l.006.007,4.878,5.76a.652.652,0,0,0,.87.09L42.57,42.781A.76.76,0,0,0,42.777,42.569Z"/>
        <path d="M110.544,109.508l-6.14-34.6a.74.74,0,0,0-.22-.412L56.739,30.075a.839.839,0,0,0-1.178.083.921.921,0,0,0-.124.161l-7.7,12.66a.659.659,0,0,0,.023.754l19.81,23.224a.423.423,0,0,1-.076.585.417.417,0,0,1-.533.024L43.736,47.756a.659.659,0,0,0-.754-.024l-12.66,7.7a.882.882,0,0,0-.355,1.152.745.745,0,0,0,.11.152L74.5,104.182a.736.736,0,0,0,.412.219l34.6,6.145a.923.923,0,0,0,1.022-.679A.84.84,0,0,0,110.544,109.508Z"/>
        <path d="M32.476,32.317l3.472-4.687a.655.655,0,0,0-.065-.895L15.763,9.58a.647.647,0,0,0-.652-.1L11.355,10.92a.756.756,0,0,0-.436.436L9.48,15.113a.647.647,0,0,0,.1.652l17.155,20.12a.655.655,0,0,0,.895.065l4.688-3.473A.866.866,0,0,0,32.476,32.317Z"/>
    </g>
</svg>
