<svg xmlns="http://www.w3.org/2000/svg" viewBox="0 0 120 120">
    <defs>
        <style>
            .cls-3 {
            stroke: #fff;
            stroke-width: 9px;
            }
        </style>
    </defs>
    <g>
        <polygon points="42.797 114.965 42.797 77.203 5.035 77.203 5.035 42.797 42.797 42.797 42.797 5.035 77.203 5.035 77.203 42.797 114.965 42.797 114.965 77.203 77.203 77.203 77.203 114.965 42.797 114.965"/>
        <polyline class="cls-3" points="75.524 6.713 75.524 44.476 113.287 44.476 113.287 75.524 75.524 75.524 75.524 113.287 44.476 113.287 44.476 75.524 6.713 75.524 6.713 44.476 44.476 44.476 44.476 6.713 75.524 6.713"/>
        <path d="M76.238,6V43.762H114V76.238H76.238V114H43.762V76.238H6V43.762H43.762V6H76.238m6-6H37.762V37.762H0V82.238H37.762V120H82.238V82.238H120V37.762H82.238V0Z"/>
    </g>
</svg>
